<svg width="100" height="76" viewBox="0 0 100 76" fill="none" xmlns="http://www.w3.org/2000/svg">
<path fill-rule="evenodd" clip-rule="evenodd" d="M58.6929 0.0152164C69.9348 0.011308 81.1771 -0.02289 92.419 0.0244987C99.1022 0.0518571 100.987 2.28499 99.5458 8.8852C95.3268 28.2149 91.0129 47.525 86.641 66.821C85.2584 72.92 82.0819 75.4184 75.6659 75.4374C53.1817 75.5043 30.6974 75.5117 8.21374 75.4345C0.864588 75.4086 -1.06858 72.9195 0.514792 65.9548C4.81104 47.0399 9.13024 28.1308 13.4841 9.22913C15.1427 2.02606 17.6353 0.0484373 24.9659 0.0274299C36.2082 -0.00432535 47.4506 0.0191247 58.6929 0.0152164Z" fill="#E0EAF5"/>
<path fill-rule="evenodd" clip-rule="evenodd" d="M41.7038 73.1897C30.4605 73.1858 19.2167 73.2375 7.97388 73.1638C2.27259 73.1266 1.2359 71.7812 2.5193 66.205C6.87026 47.2935 11.3614 28.4137 15.6157 9.48076C16.7564 4.40285 19.2172 2.15848 24.6576 2.2088C47.1423 2.41741 69.6309 2.27573 92.1171 2.2987C97.7563 2.30407 98.7031 3.51028 97.4373 9.22965C93.3272 27.7977 89.1912 46.3604 84.9824 64.9064C83.4073 71.8471 81.5929 73.1716 74.2906 73.1877C63.4284 73.2107 52.5656 73.1936 41.7038 73.1897Z" fill="#2671BE"/>
<path fill-rule="evenodd" clip-rule="evenodd" d="M51.271 36.1278C50.5172 35.2435 49.6896 34.2254 48.8131 33.2522C43.8432 27.7317 38.9172 22.1701 33.8588 16.7322C31.5441 14.2435 30.8064 11.8267 33.5862 9.37031C36.3333 6.94225 39.0325 7.15721 41.5524 9.9507C48.5703 17.7278 55.5799 25.5137 62.7141 33.1838C65.3776 36.0487 64.7572 37.9965 61.8235 40.1192C50.5631 48.2695 39.3662 56.5083 28.1815 64.7627C25.6674 66.6187 23.2706 67.0833 21.2398 64.3421C18.9993 61.3185 21.0722 59.5197 23.3962 57.8274C31.7078 51.7734 40.0032 45.6969 48.263 39.5725C49.4135 38.7195 51.0653 38.2222 51.271 36.1278Z" fill="#FDFDFE"/>
<path fill-rule="evenodd" clip-rule="evenodd" d="M54.831 65.3759C51.804 65.3759 48.7726 65.4799 45.7524 65.3427C43.3429 65.2337 41.8929 63.8873 41.9232 61.3493C41.9525 58.9496 43.1621 57.1454 45.5692 57.0804C52.185 56.9031 58.8106 56.9412 65.4289 57.0706C67.5321 57.1117 69.0847 58.482 69.072 60.6736C69.0569 63.1877 67.7339 65.1355 65.0415 65.2977C61.6491 65.5029 58.2356 65.3485 54.8315 65.3485C54.831 65.3568 54.831 65.3666 54.831 65.3759Z" fill="#FCFDFD"/>
</svg>
